<svg width="28" height="25" viewBox="0 0 28 25" fill="none" xmlns="http://www.w3.org/2000/svg">
<path d="M7.57501 12.2751C7.57501 11.125 7.85834 10.1417 8.42498 9.32504C8.99163 8.50842 9.76662 7.89186 10.75 7.47516C11.6498 7.0918 12.7583 6.81698 14.0751 6.65003C14.5249 6.60013 15.2583 6.53343 16.275 6.44996V6.02498C16.275 4.95837 16.1584 4.24179 15.925 3.87499C15.575 3.37481 15.0251 3.12506 14.2749 3.12506H14.0751C13.525 3.17496 13.0499 3.34997 12.65 3.64985C12.2501 3.94996 11.9916 4.36644 11.875 4.89996C11.8083 5.23319 11.6418 5.42476 11.375 5.47489L8.49995 5.12488C8.21663 5.05819 8.07497 4.90824 8.07497 4.67483C8.07497 4.62492 8.08325 4.56651 8.09981 4.50004C8.38313 3.01674 9.07891 1.91679 10.1874 1.19998C11.2956 0.483618 12.5916 0.0834751 14.0751 0H14.7002C16.5997 0 18.0832 0.491675 19.1503 1.47502C19.3172 1.64242 19.4721 1.8219 19.6127 2.01235C19.7539 2.20392 19.8667 2.3749 19.9497 2.52484C20.0332 2.67478 20.1084 2.89164 20.1748 3.17474C20.2417 3.45828 20.2914 3.6541 20.3252 3.7622C20.3583 3.87051 20.3834 4.10393 20.4 4.46245C20.4165 4.82074 20.4248 5.03312 20.4248 5.09981V11.1499C20.4248 11.5831 20.4872 11.979 20.6123 12.3373C20.7374 12.6958 20.8585 12.9541 20.9747 13.1123C21.0913 13.2705 21.2833 13.525 21.5498 13.8745C21.6498 14.0249 21.6998 14.1583 21.6998 14.2749C21.6998 14.4083 21.6333 14.5244 21.4995 14.6247C20.1164 15.8249 19.3665 16.475 19.2497 16.5751C19.0498 16.725 18.8081 16.7416 18.5246 16.625C18.2916 16.4247 18.0875 16.2333 17.9123 16.0498C17.7375 15.8668 17.6124 15.7334 17.5372 15.6499C17.4624 15.5669 17.3414 15.4042 17.1749 15.1625C17.0084 14.9208 16.8911 14.7581 16.8249 14.6751C15.8916 15.6917 14.975 16.3251 14.0751 16.5751C13.5082 16.7416 12.8082 16.825 11.975 16.825C10.6916 16.825 9.6375 16.4289 8.81259 15.6374C7.98746 14.8456 7.57501 13.7248 7.57501 12.2751ZM11.875 11.7749C11.875 12.425 12.0377 12.9458 12.3624 13.3374C12.6876 13.7291 13.1249 13.9249 13.675 13.9249C13.7251 13.9249 13.7958 13.9166 13.8876 13.9001C13.9789 13.883 14.0415 13.8748 14.0751 13.8748C14.7749 13.6917 15.3165 13.2419 15.6998 12.5251C15.8834 12.2084 16.0208 11.8626 16.1125 11.4876C16.2043 11.1127 16.2542 10.8083 16.2625 10.5749C16.2707 10.3417 16.2752 9.95837 16.2752 9.42507V8.80002C15.3084 8.80002 14.5753 8.86671 14.0753 9.00009C12.6081 9.41657 11.875 10.3415 11.875 11.7749Z" fill="black"/>
<path d="M22.3747 19.825C22.4082 19.7581 22.4582 19.6916 22.5251 19.6247C22.9415 19.3414 23.3415 19.15 23.7248 19.05C24.3582 18.8835 24.9749 18.7917 25.5747 18.775C25.7417 18.7579 25.8999 18.7667 26.0498 18.7998C26.8 18.8663 27.2496 18.9916 27.4 19.1749C27.4664 19.2749 27.4996 19.4248 27.4996 19.6247V19.7999C27.4996 20.3829 27.3413 21.0706 27.0249 21.8622C26.708 22.6537 26.2664 23.2916 25.6996 23.775C25.6166 23.8414 25.5414 23.8745 25.4749 23.8745C25.4413 23.8745 25.408 23.8663 25.3749 23.8497C25.2748 23.7998 25.2498 23.708 25.2997 23.5747C25.9164 22.1247 26.2246 21.1165 26.2246 20.5494C26.2246 20.3663 26.1915 20.233 26.125 20.1495C25.9581 19.9496 25.4917 19.8496 24.725 19.8496C24.4412 19.8496 24.1082 19.8662 23.7248 19.8995C23.3083 19.9499 22.925 19.9996 22.5747 20.0499C22.4747 20.0499 22.4082 20.0329 22.3745 19.9996C22.3413 19.9664 22.3328 19.9331 22.3496 19.8995C22.3496 19.8832 22.3579 19.8581 22.3747 19.825ZM0.049906 19.4002C0.133381 19.2669 0.266538 19.2586 0.450049 19.3749C4.61664 21.7917 9.15003 23.0002 14.0498 23.0002C17.3167 23.0002 20.5416 22.3917 23.7248 21.1749C23.8078 21.1418 23.9289 21.0919 24.0871 21.025C24.2458 20.9585 24.3582 20.9084 24.4246 20.875C24.6746 20.775 24.8704 20.8251 25.0121 21.025C25.1542 21.2253 25.1083 21.4083 24.8749 21.5748C24.5746 21.7917 24.1912 22.0417 23.7248 22.325C22.2916 23.1752 20.6913 23.8334 18.9247 24.3002C17.1583 24.767 15.433 25 13.7499 25C11.1499 25 8.69148 24.5459 6.37499 23.6375C4.05828 22.7292 1.98326 21.4497 0.149942 19.8002C0.049906 19.7167 0 19.6332 0 19.55C0 19.4998 0.0165607 19.4499 0.049906 19.4002Z" fill="#FF9900"/>
</svg>
