<svg width="33" height="33" viewBox="0 0 33 33" fill="none" xmlns="http://www.w3.org/2000/svg">
<path d="M17.2032 29.3032L17.203 29.3032C14.6227 29.3032 12.2285 27.9005 10.4623 25.5611C8.69642 23.2222 7.58324 19.973 7.58324 16.375C7.58324 10.7752 10.235 6.13586 13.7918 4.29258C13.2589 5.66111 12.9568 7.14795 12.9568 8.63922C12.9568 11.8851 14.1768 14.8343 16.4603 17.1178C19.7811 20.4386 20.1976 25.5058 17.8349 29.2849C17.6223 29.303 17.4223 29.3033 17.2032 29.3032Z" fill="#D17842" stroke="#141921"/>
<path d="M15.9089 4.1941V4.19412L15.9133 4.19408C18.5153 4.17148 20.9075 5.5727 22.6671 7.91692C24.4269 10.2613 25.5288 13.5228 25.5288 17.1224C25.5288 22.6147 22.5513 26.8696 18.9364 28.6898C19.1389 28.318 19.3366 27.9431 19.5045 27.575C19.8767 26.7588 20.1552 25.8783 20.1552 24.8582C20.1552 21.6123 18.9352 18.6631 16.6517 16.3796C13.2779 13.0057 12.2256 8.09115 14.5355 4.37088C14.554 4.3681 14.5729 4.36526 14.5922 4.36234C14.7551 4.33781 14.9478 4.30877 15.1611 4.2787C15.5145 4.22886 15.8064 4.1941 15.9089 4.1941Z" fill="#D17842" stroke="#141921"/>
</svg>
