<svg width="10" height="10" viewBox="0 0 10 10" fill="none" xmlns="http://www.w3.org/2000/svg">
<path d="M5.72031 1.46235L6.45364 2.92902C6.55364 3.13319 6.82031 3.32902 7.04531 3.36652L8.37447 3.58735C9.22447 3.72902 9.42447 4.34569 8.81197 4.95402L7.77864 5.98735C7.60364 6.16235 7.50781 6.49985 7.56197 6.74152L7.85781 8.02069C8.09114 9.03319 7.55364 9.42485 6.65781 8.89569L5.41197 8.15819C5.18697 8.02485 4.81614 8.02485 4.58697 8.15819L3.34114 8.89569C2.44947 9.42485 1.90781 9.02902 2.14114 8.02069L2.43697 6.74152C2.49114 6.49985 2.39531 6.16235 2.22031 5.98735L1.18697 4.95402C0.57864 4.34569 0.774474 3.72902 1.62447 3.58735L2.95364 3.36652C3.17447 3.32902 3.44114 3.13319 3.54114 2.92902L4.27447 1.46235C4.67447 0.66652 5.32447 0.66652 5.72031 1.46235Z" fill="#D17842"/>
</svg>
